# xmcd
#
# Track frame offsets:
#	150
#	24658
#	39503
#	53560
#	64393
#	84753
#	99484
#	114121
#	130301
#	147838
#	158430
#
# Disc length: 2531 seconds
# Revision: 0
# Processed by: cddbd v1.5.2PL0 Copyright (c) Steve Scherf et al.
# Submitted via: dBpowerAMP V12.0
#
DISCID=8109e10b
DTITLE=The Dappled Grays - Last Night Tomorrow
DYEAR=2015
DGENRE=Country
TTITLE0=Wild Things
TTITLE1=Stand In
TTITLE2=Guest House
TTITLE3=Stayin' Blues
TTITLE4=Where Do My Bluebird Fly?
TTITLE5=Last Night, Tomorrow
TTITLE6=Home's Not Far (Cider Theme)
TTITLE7=Wimbledon
TTITLE8=My Sundial
TTITLE9=Gone But Not Forgotten
TTITLE10=BBlue Skies - Clap Hands - Fishscales)
EXTD=
EXTT0=
EXTT1=
EXTT2=
EXTT3=
EXTT4=
EXTT5=
EXTT6=
EXTT7=
EXTT8=
EXTT9=
EXTT10=
PLAYORDER=
